# xmcd
#
# Track frame offsets: 
#        150
#        21883
#        35696
#        54886
#        71927
#        84841
#        104084
#        125515
#        140906
#        160317
#        183615
#        200793
#        218041
#        231415
#        244515
#        261743
#
# Disc length: 3802 seconds
#
# Revision: 0
# Processed by: cddbd v1.5.2PL0 Copyright (c) Steve Scherf et al.
# Submitted via: ExactAudioCopy v0.95b4
#
DISCID=fc0ed810
DTITLE=Missy Elliott - The Cookbook
DYEAR=2005
DGENRE=Hip-Hop
TTITLE0=Joy (Feat. Mike Jones)
TTITLE1=Partytime
TTITLE2=Irresistible Delicious (Feat. Slick Rick)
TTITLE3=Lose Control Feat. Ciara and Fat Man Scoop
TTITLE4=My Struggles Feat. Mary J. Blige and Grand Puba
TTITLE5=Meltdown
TTITLE6=On and On
TTITLE7=We Run This
TTITLE8=Remember When
TTITLE9=4 My Man Feat. Fantasia
TTITLE10=Can't Stop
TTITLE11=Teary Eyed
TTITLE12=Mommy
TTITLE13=Click Clack
TTITLE14=Time And Time Again
TTITLE15=Bad Man (Feat. Vybez Cartel and M.I.A.)
EXTD=
EXTT0=
EXTT1=
EXTT2=
EXTT3=
EXTT4=
EXTT5=
EXTT6=
EXTT7=
EXTT8=
EXTT9=
EXTT10=
EXTT11=
EXTT12=
EXTT13=
EXTT14=
EXTT15=
PLAYORDER=
